<svg xmlns="http://www.w3.org/2000/svg" version="1.1" xmlns:xlink="http://www.w3.org/1999/xlink" xmlns:svgjs="http://svgjs.com/svgjs" width="1920" height="1080" preserveAspectRatio="none" viewBox="0 0 1920 1080"><g mask="url(&quot;#SvgjsMask1036&quot;)" fill="none"><path d="M540 203.33C433.64 203.33 324 229.41 324 270C324 312.74 435.21 370 540 370C622.62 370 698.82 313.45 698.82 270C698.82 230.12 621.05 203.33 540 203.33" stroke="rgba(61, 194, 51, 0.58)" stroke-width="2"></path><path d="M2160 31.76C2138.93 151.15 2112.35 157.2 2112.35 270C2112.35 303.69 2153.99 290.7 2160 324.73C2177.82 425.7 2160 432.37 2160 540C2160 675 2160 675 2160 810C2160 945 2217.12 1002.12 2160 1080C2118.12 1137.12 2053.06 1101.18 1962 1080C1918.06 1069.78 1931.73 1017.21 1890 1017.21C1811.35 1017.21 1807.66 1059.91 1721.25 1080C1672.66 1091.3 1670.63 1080 1620 1080C1485 1080 1485 1080 1350 1080C1274.71 1080 1253.14 1118.61 1199.42 1080C1118.14 1021.58 1141.01 885.94 1080 885.94C1017.94 885.94 1036.7 1020.04 953.27 1080C901.7 1117.07 881.63 1080 810 1080C726.43 1080 674.62 1131.62 642.86 1080C591.55 996.62 676.56 932.25 643.85 810C625.13 740.04 597.52 746.77 540 695.59C445.81 611.77 415.31 636 340.43 540C280.31 462.91 300.72 349.41 270 349.41C240.19 349.41 270.2 458.57 219.38 540C135.2 674.9 63 782.07 0 782.07C-46.69 782.07 0 661.04 0 540C0 405 0 405 0 270C0 135 -67.5 67.5 0 0C67.5 -67.5 135 0 270 0C405 0 405 0 540 0C675 0 675 0 810 0C945 0 945 0 1080 0C1215 0 1215 0 1350 0C1485 0 1485 0 1620 0C1755 0 1755 0 1890 0C2025 0 2039.21 -14.21 2160 0C2174.21 1.67 2162.75 16.15 2160 31.76" stroke="rgba(61, 194, 51, 0.58)" stroke-width="2"></path><path d="M1080 500.49C1049.77 500.49 1018.87 510.46 1018.87 540C1018.87 607.36 1050.37 694.29 1080 694.29C1109.36 694.29 1136.84 608.19 1136.84 540C1136.84 511.29 1108.75 500.49 1080 500.49" stroke="rgba(61, 194, 51, 0.58)" stroke-width="2"></path><path d="M1890 492.35C1852.4 492.35 1810.59 515.75 1810.59 540C1810.59 564.57 1852.53 590 1890 590C1919.6 590 1944.73 564.67 1944.73 540C1944.73 515.85 1919.47 492.35 1890 492.35" stroke="rgba(61, 194, 51, 0.58)" stroke-width="2"></path><path d="M0 874.8C76.71 814.71 156.75 819.21 270 868.5C392.47 921.81 471.43 1017.41 471.43 1080C471.43 1123.16 370.72 1080 270 1080C135 1080 76.7 1138.3 0 1080C-58.3 1035.7 -58.29 920.46 0 874.8" stroke="rgba(61, 194, 51, 0.58)" stroke-width="2"></path><path d="M540 120C427.55 120 313.95 31.86 313.95 0C313.95 -28.14 426.98 0 540 0C648 0 756 -27.99 756 0C756 32.01 648.57 120 540 120" stroke="rgba(61, 194, 51, 0.58)" stroke-width="2"></path><path d="M863.04 270C896.64 138.64 840.71 82.74 907.2 0C949.19 -52.26 993.6 0 1080 0C1134 0 1144.75 -25.95 1188 0C1279.75 55.05 1251.79 136.79 1350 162C1467.79 192.24 1484.67 134.57 1620 110.89C1754.67 87.32 1781.7 25.77 1890 67.5C1988.17 105.32 2032.94 174.87 2032.94 270C2032.94 347.59 1969.83 352.17 1890 412.94C1792.48 487.17 1678.24 475.33 1678.24 540C1678.24 605.53 1790.08 673.33 1890 673.33C1968.93 673.33 1964.42 608.18 2035.95 540C2099.42 479.49 2123.67 415.95 2160 415.95C2185.69 415.95 2160 477.98 2160 540C2160 635.63 2182.22 643.96 2160 731.25C2147.86 778.96 2091.27 769.89 2091.27 810C2091.27 852.22 2147.14 845.41 2160 895.91C2181.51 980.41 2194.03 1021.99 2160 1080C2140.03 1114.03 2097.15 1103.62 2052 1080C1962.15 1032.98 1984.17 955 1890 938.72C1768.17 917.66 1753.13 965.85 1620 1005.32C1514.89 1036.49 1518.23 1051.04 1413.53 1080C1383.23 1088.38 1381.76 1080 1350 1080C1339.61 1080 1333.81 1088.89 1329.23 1080C1264.26 953.89 1230.09 950.03 1210.91 810C1193.11 680.03 1292.03 650.06 1255.26 540C1226.58 454.14 1168.66 418.17 1080 418.17C986.78 418.17 922.86 451.86 891.51 540C853.18 647.78 958.88 680.46 940.65 810C920.88 950.46 879.65 947.45 815.51 1080C814.32 1082.45 812.76 1080 810 1080C806.79 1080 804.28 1083.08 803.57 1080C773.12 948.08 809.83 927.6 747.69 810C678.05 678.2 647.05 692.14 540 581.19C516.79 557.14 487.17 561.17 487.17 540C487.17 518.07 509.13 510.3 540 495C670.54 430.3 695.94 459.44 810 380C857.46 346.94 848.04 328.64 863.04 270" stroke="rgba(61, 194, 51, 0.58)" stroke-width="2"></path><path d="M0 304.84C29.98 304.84 113.91 430.6 113.91 540C113.91 611.02 32.71 665.69 0 665.69C-24.24 665.69 0 602.85 0 540C0 422.42 -26.98 304.84 0 304.84" stroke="rgba(61, 194, 51, 0.58)" stroke-width="2"></path><path d="M57.86 1080C57.86 1054.03 173.27 981 270 981C326.49 981 364.29 1050.7 364.29 1080C364.29 1100.2 317.14 1080 270 1080C163.93 1080 57.86 1103.53 57.86 1080" stroke="rgba(61, 194, 51, 0.58)" stroke-width="2"></path><path d="M540 36.67C505.64 36.67 470.93 9.74 470.93 0C470.93 -8.6 505.47 0 540 0C573 0 606 -8.55 606 0C606 9.78 573.17 36.67 540 36.67" stroke="rgba(61, 194, 51, 0.58)" stroke-width="2"></path><path d="M983.57 270C983.57 189.05 1017.35 83.79 1080 83.79C1158.67 83.79 1266.21 197.98 1266.21 270C1266.21 324.01 1168.81 335.85 1080 335.85C1027.49 335.85 983.57 315.08 983.57 270" stroke="rgba(61, 194, 51, 0.58)" stroke-width="2"></path><path d="M1492.94 270C1492.94 239.05 1555.33 246.09 1620 231.43C1753.86 201.09 1770.95 166.23 1890 180C1937.72 185.52 1953.53 227.72 1953.53 270C1953.53 304.48 1931.38 321.35 1890 333.53C1764.62 370.44 1744.87 388.16 1620 368.18C1546.34 356.39 1492.94 307.43 1492.94 270" stroke="rgba(61, 194, 51, 0.58)" stroke-width="2"></path><path d="M0 522.58C2.22 522.58 8.44 531.9 8.44 540C8.44 545.26 2.42 549.31 0 549.31C-1.8 549.31 0 544.65 0 540C0 531.29 -2 522.58 0 522.58" stroke="rgba(61, 194, 51, 0.58)" stroke-width="2"></path><path d="M2127.16 540C2127.16 521.85 2150.38 507.16 2160 507.16C2166.8 507.16 2160 523.58 2160 540C2160 565.32 2167.49 590.63 2160 590.63C2151.07 590.63 2127.16 563.58 2127.16 540" stroke="rgba(61, 194, 51, 0.58)" stroke-width="2"></path><path d="M1477.06 810C1477.06 767.59 1538.94 714.82 1620 704.35C1745.41 688.15 1760.45 717.4 1890 756.67C1934.72 770.23 1968.55 783.88 1968.55 810C1968.55 835.66 1934.73 853.59 1890 860.23C1760.46 879.44 1752.1 877.77 1620 861.7C1545.63 852.65 1477.06 846.27 1477.06 810" stroke="rgba(61, 194, 51, 0.58)" stroke-width="2"></path><path d="M2142 1080C2142 1069.81 2155.17 1049.32 2160 1049.32C2164.17 1049.32 2165.67 1070.33 2160 1080C2156.67 1085.67 2142 1085.15 2142 1080" stroke="rgba(61, 194, 51, 0.58)" stroke-width="2"></path></g><defs><mask id="SvgjsMask1036"><rect width="1920" height="1080" fill="#ffffff"></rect></mask></defs></svg>